<svg xmlns="http://www.w3.org/2000/svg" viewBox="0 0 280 220" width="280" height="220">
  <defs>
    <linearGradient id="g1" x1="0%" y1="0%" x2="100%" y2="100%">
      <stop offset="0%" stop-color="#4C8EFF"/>
      <stop offset="100%" stop-color="#7B3FE8"/>
    </linearGradient>
    <linearGradient id="gLine" x1="0%" y1="0%" x2="100%" y2="0%">
      <stop offset="0%"   stop-color="#4C8EFF" stop-opacity="0"/>
      <stop offset="25%"  stop-color="#4C8EFF"/>
      <stop offset="75%"  stop-color="#7B3FE8"/>
      <stop offset="100%" stop-color="#7B3FE8" stop-opacity="0"/>
    </linearGradient>
  </defs>

  <polygon points="55,40 90,10 125,40 125,90 90,120 55,90" fill="#4C8EFF" opacity="0.05"/>
  <polygon points="155,40 190,10 225,40 225,90 190,120 155,90" fill="#7B3FE8" opacity="0.05"/>
  <polygon points="55,40 90,10 125,40 125,90 90,120 55,90" fill="none" stroke="#4C8EFF" stroke-width="8" stroke-linejoin="round" opacity="0.12"/>
  <polygon points="155,40 190,10 225,40 225,90 190,120 155,90" fill="none" stroke="#7B3FE8" stroke-width="8" stroke-linejoin="round" opacity="0.12"/>
  <polygon points="55,40 90,10 125,40 125,90 90,120 55,90" fill="none" stroke="#4C8EFF" stroke-width="2" stroke-linejoin="round"/>
  <polygon points="155,40 190,10 225,40 225,90 190,120 155,90" fill="none" stroke="#7B3FE8" stroke-width="2" stroke-linejoin="round"/>
  <line x1="125" y1="65" x2="155" y2="65" stroke="url(#g1)" stroke-width="2"/>
  <circle cx="55" cy="40" r="4" fill="#08111F" stroke="#4C8EFF" stroke-width="1.5"/>
  <circle cx="90" cy="10" r="3" fill="#4C8EFF" opacity="0.8"/>
  <circle cx="125" cy="40" r="3" fill="#08111F" stroke="#4C8EFF" stroke-width="1.5"/>
  <circle cx="125" cy="90" r="3" fill="#08111F" stroke="#4C8EFF" stroke-width="1.5"/>
  <circle cx="90" cy="120" r="3" fill="#4C8EFF" opacity="0.8"/>
  <circle cx="55" cy="90" r="4" fill="#08111F" stroke="#4C8EFF" stroke-width="1.5"/>
  <circle cx="225" cy="40" r="4" fill="#08111F" stroke="#7B3FE8" stroke-width="1.5"/>
  <circle cx="190" cy="10" r="3" fill="#7B3FE8" opacity="0.8"/>
  <circle cx="155" cy="40" r="3" fill="#08111F" stroke="#7B3FE8" stroke-width="1.5"/>
  <circle cx="155" cy="90" r="3" fill="#08111F" stroke="#7B3FE8" stroke-width="1.5"/>
  <circle cx="190" cy="120" r="3" fill="#7B3FE8" opacity="0.8"/>
  <circle cx="225" cy="90" r="4" fill="#08111F" stroke="#7B3FE8" stroke-width="1.5"/>
  <circle cx="140" cy="65" r="5" fill="#08111F" stroke="url(#g1)" stroke-width="1.5"/>
  <circle cx="140" cy="65" r="2.5" fill="url(#g1)"/>

  <line x1="40" y1="140" x2="240" y2="140" stroke="url(#gLine)" stroke-width="0.8" opacity="0.5"/>

  <text x="140" y="172"
    text-anchor="middle"
    font-family="Inter, system-ui, sans-serif"
    font-size="22" font-weight="200"
    fill="#FFFFFF" letter-spacing="11">ACTUALYZA</text>

  <text x="140" y="195"
    text-anchor="middle"
    font-family="Inter, system-ui, sans-serif"
    font-size="7" font-weight="400"
    fill="#4C8EFF" opacity="0.6"
    letter-spacing="4">INTELLIGENT SYSTEMS</text>
</svg>
